<?xml version="1.0" encoding="UTF-8" standalone="no"?>
<!-- Created with Inkscape (http://www.inkscape.org/) -->

<svg
   xmlns:dc="http://purl.org/dc/elements/1.1/"
   xmlns:cc="http://creativecommons.org/ns#"
   xmlns:rdf="http://www.w3.org/1999/02/22-rdf-syntax-ns#"
   xmlns:svg="http://www.w3.org/2000/svg"
   xmlns="http://www.w3.org/2000/svg"
   xmlns:sodipodi="http://sodipodi.sourceforge.net/DTD/sodipodi-0.dtd"
   xmlns:inkscape="http://www.inkscape.org/namespaces/inkscape"
   width="470"
   height="530"
   id="svg3453"
   version="1.1"
   inkscape:version="0.48.4 r9939"
   sodipodi:docname="New document 6">
  <defs
     id="defs3455">
    <clipPath
       clipPathUnits="userSpaceOnUse"
       id="clipPath3233">
      <path
         inkscape:connector-curvature="0"
         d="m 0,1692.721 1920,0 L 1920,0 0,0 0,1692.721 z"
         id="path3235" />
    </clipPath>
  </defs>
  <sodipodi:namedview
     id="base"
     pagecolor="#ffffff"
     bordercolor="#666666"
     borderopacity="1.0"
     inkscape:pageopacity="0.0"
     inkscape:pageshadow="2"
     inkscape:zoom="0.7"
     inkscape:cx="332.53174"
     inkscape:cy="343.3542"
     inkscape:document-units="px"
     inkscape:current-layer="g3231"
     showgrid="false"
     inkscape:window-width="917"
     inkscape:window-height="734"
     inkscape:window-x="476"
     inkscape:window-y="293"
     inkscape:window-maximized="0" />
  <metadata
     id="metadata3458">
    <rdf:RDF>
      <cc:Work
         rdf:about="">
        <dc:format>image/svg+xml</dc:format>
        <dc:type
           rdf:resource="http://purl.org/dc/dcmitype/StillImage" />
        <dc:title></dc:title>
      </cc:Work>
    </rdf:RDF>
  </metadata>
  <g
     inkscape:label="Layer 1"
     inkscape:groupmode="layer"
     id="layer1"
     transform="translate(0,-522.36218)">
    <g
       clip-path="url(#clipPath3233)"
       id="g3231"
       transform="matrix(1.25,0,0,-1.25,-353.24363,2390.9221)">
      <g
         transform="matrix(0.99902754,0,0,0.99637849,283.26953,1193.8999)"
         id="g3237">
        <path
           inkscape:connector-curvature="0"
           id="path3239"
           style="fill:#2c323d;fill-opacity:1;fill-rule:nonzero;stroke:none"
           d="m 0,0 47.381,-124.62 328.985,0 -208.057,414.305 -55.431,0 -52.497,-32.253 -7.5,-80.762 56.997,-43.498 L 0,0 z" />
      </g>
      <path
         d="m 410.40098,1493.7312 c 7.05713,-3.1575 14.91148,-2.0824 22.21238,-4.2296 6.45571,-1.8991 12.81253,-3.8401 18.8017,-6.9657 5.39175,-2.8148 7.14204,-6.0231 1.98606,-10.7101 -1.46857,-1.3351 -2.90117,-2.7739 -4.05805,-4.3741 -3.76533,-5.2061 -7.48571,-5.9633 -13.84552,-2.9881 -39.68437,18.5655 -86.61868,-4.5345 -91.83161,-46.1164 -5.96819,-47.606 23.47515,-77.7863 73.25369,-73.2398 2.80028,0.2551 6.23793,2.5079 8.16905,-0.7652 1.93112,-3.2721 -1.48455,-5.4153 -3.2818,-7.5785 -30.67315,-36.9367 -61.41222,-73.8187 -92.12533,-110.7235 -1.68636,-2.0267 -3.26882,-4.14 -4.96816,-6.3001 3.14893,-2.2319 5.97219,-1.3601 8.59663,-1.3671 26.9208,-0.075 53.87356,0.7643 80.7524,-0.2859 24.29135,-0.9486 36.34162,9.9279 45.12207,30.2988 1.29574,3.0061 1.81923,6.4506 6.41176,5.1304 -0.2078,-2.202 -0.27973,-4.4259 -0.64637,-6.601 -2.64043,-15.6322 -5.73542,-31.2026 -7.79941,-46.9085 -0.69332,-5.2778 -2.30675,-6.2842 -7.19499,-6.2682 -55.56192,0.1843 -111.12383,0.1425 -166.68575,0.1614 l 0,19.3925 c 2.51255,0.4304 3.45164,2.6902 4.8283,4.3283 19.03747,22.6447 38.012,45.3422 57.00651,68.0227 10.79749,12.8912 21.60397,25.7753 32.52334,38.802 -1.30273,0.7662 -1.89615,1.3003 -2.58648,1.4946 -38.02499,10.7489 -60.97065,44.3149 -59.19338,86.0034 1.63541,38.3426 25.91178,68.4053 63.38929,77.5292 7.35784,1.7915 15.1113,1.2445 22.18941,4.2585 l 8.97426,0 z"
         style="fill:#f4a621;fill-opacity:1;fill-rule:nonzero;stroke:none"
         id="path3243"
         inkscape:connector-curvature="0" />
      <g
         transform="translate(1451.9954,503.6092)"
         id="g3245">
        <path
           inkscape:connector-curvature="0"
           id="path3247"
           style="fill:#f9f9f9;fill-opacity:1;fill-rule:nonzero;stroke:none"
           d="m 0,0 -969.201,0 c -1.657,0 -3,1.343 -3,3 l 0,383.519 c 0,1.657 1.343,3 3,3 l 969.201,0 c 1.657,0 3,-1.343 3,-3 L 3,3 C 3,1.343 1.657,0 0,0" />
      </g>
      <g
         transform="translate(1451.9954,503.6092)"
         id="g3249">
        <path
           inkscape:connector-curvature="0"
           id="path3251"
           style="fill:none;stroke:#cccccc;stroke-width:1;stroke-linecap:butt;stroke-linejoin:miter;stroke-miterlimit:10;stroke-opacity:1;stroke-dasharray:none"
           d="m 0,0 -969.201,0 c -1.657,0 -3,1.343 -3,3 l 0,383.519 c 0,1.657 1.343,3 3,3 l 969.201,0 c 1.657,0 3,-1.343 3,-3 L 3,3 C 3,1.343 1.657,0 0,0 z" />
      </g>
      <g
         transform="translate(1451.9954,504.6973)"
         id="g3253">
        <path
           inkscape:connector-curvature="0"
           id="path3255"
           style="fill:#303443;fill-opacity:1;fill-rule:nonzero;stroke:none"
           d="m 0,0 -969.201,0 c -1.657,0 -3,1.343 -3,3 l 0,313.721 L 3,316.721 3,3 C 3,1.343 1.657,0 0,0" />
      </g>
    </g>
  </g>
</svg>
